<svg width="158" height="168" viewBox="0 0 158 168" fill="none" xmlns="http://www.w3.org/2000/svg">
<ellipse cx="2.5" cy="2.65823" rx="2.5" ry="2.65823" fill="#C4C4C4"/>
<ellipse cx="2.5" cy="2.65823" rx="2.5" ry="2.65823" fill="#DDE522"/>
<ellipse cx="2.5" cy="20.7337" rx="2.5" ry="2.65823" fill="#DDE522"/>
<ellipse cx="2.5" cy="38.8103" rx="2.5" ry="2.65823" fill="#DDE522"/>
<ellipse cx="2.5" cy="56.8858" rx="2.5" ry="2.65823" fill="#DDE522"/>
<ellipse cx="2.5" cy="74.9624" rx="2.5" ry="2.65823" fill="#DDE522"/>
<ellipse cx="2.5" cy="93.0379" rx="2.5" ry="2.65823" fill="#DDE522"/>
<ellipse cx="2.5" cy="111.113" rx="2.5" ry="2.65823" fill="#DDE522"/>
<ellipse cx="2.5" cy="129.19" rx="2.5" ry="2.65823" fill="#DDE522"/>
<ellipse cx="2.5" cy="147.265" rx="2.5" ry="2.65823" fill="#DDE522"/>
<ellipse cx="2.5" cy="165.342" rx="2.5" ry="2.65823" fill="#DDE522"/>
<ellipse cx="19.5" cy="20.7337" rx="2.5" ry="2.65823" fill="#DDE522"/>
<ellipse cx="19.5" cy="38.8103" rx="2.5" ry="2.65823" fill="#DDE522"/>
<ellipse cx="19.5" cy="56.8858" rx="2.5" ry="2.65823" fill="#DDE522"/>
<ellipse cx="19.5" cy="74.9624" rx="2.5" ry="2.65823" fill="#DDE522"/>
<ellipse cx="19.5" cy="93.0379" rx="2.5" ry="2.65823" fill="#DDE522"/>
<ellipse cx="19.5" cy="111.113" rx="2.5" ry="2.65823" fill="#DDE522"/>
<ellipse cx="19.5" cy="129.19" rx="2.5" ry="2.65823" fill="#DDE522"/>
<ellipse cx="19.5" cy="147.265" rx="2.5" ry="2.65823" fill="#DDE522"/>
<ellipse cx="19.5" cy="165.342" rx="2.5" ry="2.65823" fill="#DDE522"/>
<ellipse cx="36.5" cy="20.7337" rx="2.5" ry="2.65823" fill="#DDE522"/>
<ellipse cx="36.5" cy="38.8103" rx="2.5" ry="2.65823" fill="#DDE522"/>
<ellipse cx="36.5" cy="56.8858" rx="2.5" ry="2.65823" fill="#DDE522"/>
<ellipse cx="36.5" cy="74.9624" rx="2.5" ry="2.65823" fill="#DDE522"/>
<ellipse cx="36.5" cy="93.0379" rx="2.5" ry="2.65823" fill="#DDE522"/>
<ellipse cx="36.5" cy="111.113" rx="2.5" ry="2.65823" fill="#DDE522"/>
<ellipse cx="36.5" cy="129.19" rx="2.5" ry="2.65823" fill="#DDE522"/>
<ellipse cx="36.5" cy="147.265" rx="2.5" ry="2.65823" fill="#DDE522"/>
<ellipse cx="36.5" cy="165.342" rx="2.5" ry="2.65823" fill="#DDE522"/>
<ellipse cx="53.5" cy="20.7337" rx="2.5" ry="2.65823" fill="#DDE522"/>
<ellipse cx="53.5" cy="38.8103" rx="2.5" ry="2.65823" fill="#DDE522"/>
<ellipse cx="53.5" cy="56.8858" rx="2.5" ry="2.65823" fill="#DDE522"/>
<ellipse cx="53.5" cy="74.9624" rx="2.5" ry="2.65823" fill="#DDE522"/>
<ellipse cx="53.5" cy="93.0379" rx="2.5" ry="2.65823" fill="#DDE522"/>
<ellipse cx="53.5" cy="111.113" rx="2.5" ry="2.65823" fill="#DDE522"/>
<ellipse cx="53.5" cy="129.19" rx="2.5" ry="2.65823" fill="#DDE522"/>
<ellipse cx="53.5" cy="147.265" rx="2.5" ry="2.65823" fill="#DDE522"/>
<ellipse cx="53.5" cy="165.342" rx="2.5" ry="2.65823" fill="#DDE522"/>
<ellipse cx="70.5" cy="20.7337" rx="2.5" ry="2.65823" fill="#DDE522"/>
<ellipse cx="70.5" cy="38.8103" rx="2.5" ry="2.65823" fill="#DDE522"/>
<ellipse cx="70.5" cy="56.8858" rx="2.5" ry="2.65823" fill="#DDE522"/>
<ellipse cx="70.5" cy="74.9624" rx="2.5" ry="2.65823" fill="#DDE522"/>
<ellipse cx="70.5" cy="93.0379" rx="2.5" ry="2.65823" fill="#DDE522"/>
<ellipse cx="70.5" cy="111.113" rx="2.5" ry="2.65823" fill="#DDE522"/>
<ellipse cx="70.5" cy="129.19" rx="2.5" ry="2.65823" fill="#DDE522"/>
<ellipse cx="70.5" cy="147.265" rx="2.5" ry="2.65823" fill="#DDE522"/>
<ellipse cx="70.5" cy="165.342" rx="2.5" ry="2.65823" fill="#DDE522"/>
<ellipse cx="87.5" cy="20.7337" rx="2.5" ry="2.65823" fill="#DDE522"/>
<ellipse cx="87.5" cy="38.8103" rx="2.5" ry="2.65823" fill="#DDE522"/>
<ellipse cx="87.5" cy="56.8858" rx="2.5" ry="2.65823" fill="#DDE522"/>
<ellipse cx="87.5" cy="74.9624" rx="2.5" ry="2.65823" fill="#DDE522"/>
<ellipse cx="87.5" cy="93.0379" rx="2.5" ry="2.65823" fill="#DDE522"/>
<ellipse cx="87.5" cy="111.113" rx="2.5" ry="2.65823" fill="#DDE522"/>
<ellipse cx="87.5" cy="129.19" rx="2.5" ry="2.65823" fill="#DDE522"/>
<ellipse cx="87.5" cy="147.265" rx="2.5" ry="2.65823" fill="#DDE522"/>
<ellipse cx="87.5" cy="165.342" rx="2.5" ry="2.65823" fill="#DDE522"/>
<ellipse cx="104.5" cy="20.7337" rx="2.5" ry="2.65823" fill="#DDE522"/>
<ellipse cx="104.5" cy="38.8103" rx="2.5" ry="2.65823" fill="#DDE522"/>
<ellipse cx="104.5" cy="56.8858" rx="2.5" ry="2.65823" fill="#DDE522"/>
<ellipse cx="104.5" cy="74.9624" rx="2.5" ry="2.65823" fill="#DDE522"/>
<ellipse cx="104.5" cy="93.0379" rx="2.5" ry="2.65823" fill="#DDE522"/>
<ellipse cx="104.5" cy="111.113" rx="2.5" ry="2.65823" fill="#DDE522"/>
<ellipse cx="104.5" cy="129.19" rx="2.5" ry="2.65823" fill="#DDE522"/>
<ellipse cx="104.5" cy="147.265" rx="2.5" ry="2.65823" fill="#DDE522"/>
<ellipse cx="104.5" cy="165.342" rx="2.5" ry="2.65823" fill="#DDE522"/>
<ellipse cx="121.5" cy="20.7337" rx="2.5" ry="2.65823" fill="#DDE522"/>
<ellipse cx="121.5" cy="38.8103" rx="2.5" ry="2.65823" fill="#DDE522"/>
<ellipse cx="121.5" cy="56.8858" rx="2.5" ry="2.65823" fill="#DDE522"/>
<ellipse cx="121.5" cy="74.9624" rx="2.5" ry="2.65823" fill="#DDE522"/>
<ellipse cx="121.5" cy="93.0379" rx="2.5" ry="2.65823" fill="#DDE522"/>
<ellipse cx="121.5" cy="111.113" rx="2.5" ry="2.65823" fill="#DDE522"/>
<ellipse cx="121.5" cy="129.19" rx="2.5" ry="2.65823" fill="#DDE522"/>
<ellipse cx="121.5" cy="147.265" rx="2.5" ry="2.65823" fill="#DDE522"/>
<ellipse cx="121.5" cy="165.342" rx="2.5" ry="2.65823" fill="#DDE522"/>
<ellipse cx="138.5" cy="20.7337" rx="2.5" ry="2.65823" fill="#DDE522"/>
<ellipse cx="138.5" cy="38.8103" rx="2.5" ry="2.65823" fill="#DDE522"/>
<ellipse cx="138.5" cy="56.8858" rx="2.5" ry="2.65823" fill="#DDE522"/>
<ellipse cx="138.5" cy="74.9624" rx="2.5" ry="2.65823" fill="#DDE522"/>
<ellipse cx="138.5" cy="93.0379" rx="2.5" ry="2.65823" fill="#DDE522"/>
<ellipse cx="138.5" cy="111.113" rx="2.5" ry="2.65823" fill="#DDE522"/>
<ellipse cx="138.5" cy="129.19" rx="2.5" ry="2.65823" fill="#DDE522"/>
<ellipse cx="138.5" cy="147.265" rx="2.5" ry="2.65823" fill="#DDE522"/>
<ellipse cx="138.5" cy="165.342" rx="2.5" ry="2.65823" fill="#DDE522"/>
<ellipse cx="155.5" cy="20.7337" rx="2.5" ry="2.65823" fill="#DDE522"/>
<ellipse cx="155.5" cy="38.8103" rx="2.5" ry="2.65823" fill="#DDE522"/>
<ellipse cx="155.5" cy="56.8858" rx="2.5" ry="2.65823" fill="#DDE522"/>
<ellipse cx="155.5" cy="74.9624" rx="2.5" ry="2.65823" fill="#DDE522"/>
<ellipse cx="155.5" cy="93.0379" rx="2.5" ry="2.65823" fill="#DDE522"/>
<ellipse cx="155.5" cy="111.113" rx="2.5" ry="2.65823" fill="#DDE522"/>
<ellipse cx="155.5" cy="129.19" rx="2.5" ry="2.65823" fill="#DDE522"/>
<ellipse cx="155.5" cy="147.265" rx="2.5" ry="2.65823" fill="#DDE522"/>
<ellipse cx="155.5" cy="165.342" rx="2.5" ry="2.65823" fill="#DDE522"/>
<ellipse cx="53.5" cy="2.65823" rx="2.5" ry="2.65823" fill="#DDE522"/>
<ellipse cx="87.5" cy="2.65823" rx="2.5" ry="2.65823" fill="#DDE522"/>
<ellipse cx="104.5" cy="2.65823" rx="2.5" ry="2.65823" fill="#DDE522"/>
<ellipse cx="121.5" cy="2.65823" rx="2.5" ry="2.65823" fill="#DDE522"/>
<ellipse cx="138.5" cy="2.65823" rx="2.5" ry="2.65823" fill="#DDE522"/>
<ellipse cx="155.5" cy="2.65823" rx="2.5" ry="2.65823" fill="#DDE522"/>
<ellipse cx="70.5" cy="2.65823" rx="2.5" ry="2.65823" fill="#DDE522"/>
<ellipse cx="36.5" cy="2.65823" rx="2.5" ry="2.65823" fill="#DDE522"/>
<ellipse cx="19.5" cy="2.65823" rx="2.5" ry="2.65823" fill="#DDE522"/>
</svg>
